HIERARCHY
ROOT Hips
{
 OFFSET 0.000000 0.000000 0.000000
 CHANNELS 6 Xposition Yposition Zposition Yrotation Xrotation Zrotation
 JOINT Chest
 {
  OFFSET 0.000000 9.585900 0.002600
  CHANNELS 3 Yrotation Xrotation Zrotation
  JOINT Chest2
  {
   OFFSET 0.000000 9.601200 -0.005300
   CHANNELS 3 Yrotation Xrotation Zrotation
   JOINT Chest3
   {
    OFFSET 0.000000 9.561800 0.000000
    CHANNELS 3 Yrotation Xrotation Zrotation
    JOINT Chest4
    {
     OFFSET 0.000000 9.552100 0.000000
     CHANNELS 3 Yrotation Xrotation Zrotation
     JOINT Neck
     {
      OFFSET 0.000000 14.453000 0.000000
      CHANNELS 3 Yrotation Xrotation Zrotation
      JOINT Head
      {
       OFFSET 0.000000 8.936500 -0.011300
       CHANNELS 3 Yrotation Xrotation Zrotation
       End Site
       {
        OFFSET 0.000000 17.073600 -0.006000
       }
      }
     }
     JOINT RightCollar
     {
      OFFSET -2.921100 9.558500 0.000000
      CHANNELS 3 Yrotation Xrotation Zrotation
      JOINT RightShoulder
      {
       OFFSET -13.519700 0.000000 0.000000
       CHANNELS 3 Yrotation Xrotation Zrotation
       JOINT RightElbow
       {
        OFFSET 0.000000 -29.696600 0.000000
        CHANNELS 3 Yrotation Xrotation Zrotation
        JOINT RightWrist
        {
         OFFSET 0.000000 -24.004700 0.000000
         CHANNELS 3 Yrotation Xrotation Zrotation
         End Site
         {
          OFFSET 0.000000 -17.728500 0.000000
         }
        }
       }
      }
     }
     JOINT LeftCollar
     {
      OFFSET 2.921100 9.558500 0.000000
      CHANNELS 3 Yrotation Xrotation Zrotation
      JOINT LeftShoulder
      {
       OFFSET 13.519700 0.000000 0.000000
       CHANNELS 3 Yrotation Xrotation Zrotation
       JOINT LeftElbow
       {
        OFFSET 0.000000 -29.696600 0.000000
        CHANNELS 3 Yrotation Xrotation Zrotation
        JOINT LeftWrist
        {
         OFFSET 0.000000 -24.004700 0.000000
         CHANNELS 3 Yrotation Xrotation Zrotation
         End Site
         {
          OFFSET 0.000000 -17.728500 0.000000
         }
        }
       }
      }
     }
    }
   }
  }
 }
 JOINT RightHip
 {
  OFFSET -7.771700 -0.012900 -0.001300
  CHANNELS 3 Yrotation Xrotation Zrotation
  JOINT RightKnee
  {
   OFFSET 0.000000 -40.869800 0.001200
   CHANNELS 3 Yrotation Xrotation Zrotation
   JOINT RightAnkle
   {
    OFFSET 0.000000 -39.717900 0.002100
    CHANNELS 3 Yrotation Xrotation Zrotation
    JOINT RightToe
    {
     OFFSET 0.000000 -4.965400 11.033500
     CHANNELS 3 Yrotation Xrotation Zrotation
     End Site
     {
      OFFSET 0.000000 -1.423100 5.872300
     }
    }
   }
  }
 }
 JOINT LeftHip
 {
  OFFSET 7.771700 -0.012900 -0.001300
  CHANNELS 3 Yrotation Xrotation Zrotation
  JOINT LeftKnee
  {
   OFFSET 0.000000 -40.869800 0.001200
   CHANNELS 3 Yrotation Xrotation Zrotation
   JOINT LeftAnkle
   {
    OFFSET 0.000000 -39.717900 0.002100
    CHANNELS 3 Yrotation Xrotation Zrotation
    JOINT LeftToe
    {
     OFFSET 0.000000 -4.965400 11.033500
     CHANNELS 3 Yrotation Xrotation Zrotation
     End Site
     {
      OFFSET 0.000000 -1.423100 5.872300
     }
    }
   }
  }
 }
}
MOTION
Frames: 8
Frame Time: 0.008333
0.000000 85.388000 0.000000 0.000000 -5.767877 0.000000 0.000000 11.653817 0.000000 0.000000 -5.885947 0.000000 0.000000 -0.000000 0.000000 0.000000 -0.000000 0.000000 0.000000 12.528835 0.000000 0.000000 0.711642 0.000000 0.000000 -0.000000 0.000000 0.000000 0.000000 -90.000000 0.000000 -2.309062 0.000000 0.000000 2.309062 0.000000 0.000000 -0.000000 0.000000 0.000000 -0.000000 90.000000 0.000000 -2.309062 0.000000 0.000000 2.309062 0.000000 0.000000 8.520406 0.000000 0.000000 1.905762 0.000000 -0.000000 -4.658285 0.000000 0.000000 -0.000000 0.000000 0.000000 8.520406 0.000000 0.000000 1.905762 0.000000 -0.000000 -4.658285 0.000000 0.000000 -0.000000 0.000000
-147.099127 49.080841 18.571282 176.975013 -33.188684 -3.674688 2.393938 19.672078 3.599761 0.244885 2.429882 0.360553 0.386450 3.990996 0.631926 2.039579 16.919112 2.803922 13.058650 24.900181 -0.907302 23.599809 11.468082 -4.561720 -4.301373 -3.723235 -2.727477 2.587657 -4.033259 -12.000549 -37.687914 -42.332212 89.250129 1.712242 0.700527 -12.890003 -3.495622 -4.318014 6.020012 19.906503 -7.125168 7.750819 80.865946 -37.394085 -103.077755 17.536830 -7.417012 26.865074 -1.687602 -51.729307 -9.177310 -138.040392 81.231564 -125.545306 -30.206603 -2.377745 -3.183973 -0.132425 -11.270178 1.124196 -15.285160 -53.341879 17.543984 -74.473835 65.762139 -79.083653 30.603979 6.798037 14.954936 -0.028940 -0.366551 0.001093
-147.100732 49.080559 18.568831 177.023512 -33.248323 -3.674343 2.314254 19.703715 3.625539 0.233005 2.446371 0.363694 0.400429 4.012302 0.591544 1.988367 16.950635 2.818107 13.055144 24.910715 -0.950578 23.603410 11.490950 -4.629749 -4.195158 -3.769061 -2.814899 2.546177 -4.010134 -11.978945 -37.811813 -42.375103 89.313222 1.689605 0.760958 -12.859607 -3.449569 -4.314606 6.098642 20.066513 -7.086754 7.633226 80.980629 -37.319013 -103.170663 17.580453 -7.589684 27.060545 -1.692061 -51.673753 -9.219481 -138.033726 81.203474 -125.553458 -30.197577 -2.368246 -3.161863 -0.142743 -11.283943 1.121789 -15.260089 -53.294992 17.477259 -74.470863 65.762340 -79.082635 30.593247 6.812168 14.954471 -0.018632 -0.372728 0.004864
-147.099965 49.075588 18.573980 177.058491 -33.268476 -3.680939 2.263959 19.715991 3.634153 0.219015 2.454248 0.376025 0.389782 4.029151 0.595085 1.940405 16.984368 2.822440 13.070356 24.900283 -1.022395 23.608289 11.496411 -4.664306 -4.100032 -3.815468 -2.898010 2.521005 -3.959216 -11.995232 -38.057958 -42.464765 89.458007 1.674417 0.812053 -12.794481 -3.382065 -4.321644 6.154259 20.149600 -7.098279 7.548285 81.103166 -37.269869 -103.224344 17.600474 -7.739026 27.207869 -1.700205 -51.662078 -9.232307 -138.004497 81.179755 -125.531264 -30.202428 -2.360982 -3.151519 -0.161713 -11.289769 1.125650 -15.268891 -53.283434 17.453672 -74.437812 65.768645 -79.046091 30.584172 6.839608 14.954402 -0.011284 -0.378339 0.002818
-147.098554 49.071465 18.578183 177.085636 -33.308917 -3.685840 2.234323 19.754838 3.632403 0.192297 2.458139 0.409951 0.370287 4.051003 0.610372 1.899814 17.018375 2.816052 13.081656 24.883679 -1.100652 23.613092 11.513111 -4.720159 -3.956562 -3.841602 -2.996110 2.440703 -3.927607 -12.012420 -38.199989 -42.520613 89.572807 1.730709 0.726254 -12.772845 -3.304415 -4.339238 6.188146 20.194616 -7.141127 7.488057 81.212028 -37.251590 -103.258963 17.598314 -7.851268 27.300274 -1.701581 -51.624108 -9.248810 -137.989908 81.166307 -125.519975 -30.195876 -2.361367 -3.141217 -0.175860 -11.289048 1.124511 -15.265965 -53.252456 17.423757 -74.433728 65.766492 -79.038471 30.583358 6.851442 14.951547 -0.003879 -0.376878 0.001163
-147.101260 49.071450 18.575897 177.130819 -33.404692 -3.674421 2.156484 19.845042 3.626217 0.195339 2.472223 0.416718 0.361531 4.071525 0.614968 1.859460 17.057798 2.824001 13.069341 24.873591 -1.149432 23.649823 11.501174 -4.815665 -3.811660 -3.857326 -3.091502 2.337272 -3.898445 -12.036571 -38.395546 -42.596420 89.703549 1.752022 0.719551 -12.718516 -3.228496 -4.365825 6.207027 20.215522 -7.212830 7.454247 81.291403 -37.255885 -103.275143 17.580175 -7.918274 27.342081 -1.678281 -51.528533 -9.311084 -137.980174 81.152260 -125.520764 -30.196519 -2.354003 -3.128349 -0.173432 -11.294865 1.127912 -15.221662 -53.170664 17.324401 -74.418899 65.761851 -79.019383 30.579390 6.881913 14.941976 0.010032 -0.391187 0.006404
-147.101329 49.067984 18.579839 177.159862 -33.470201 -3.673095 2.105441 19.904864 3.646766 0.200979 2.485328 0.421630 0.354511 4.095328 0.620422 1.826760 17.102287 2.835323 13.050741 24.869051 -1.148292 23.643033 11.463662 -4.944231 -3.691698 -3.879622 -3.182738 2.210358 -3.778088 -12.073788 -38.636607 -42.721505 89.915801 1.762605 0.722254 -12.667361 -3.157323 -4.401865 6.212689 20.212729 -7.313206 7.442599 81.338903 -37.278952 -103.277440 17.552672 -7.937255 27.346231 -1.643799 -51.463485 -9.345915 -137.920237 81.138798 -125.457605 -30.208136 -2.349497 -3.123641 -0.166819 -11.289659 1.136350 -15.201679 -53.115211 17.266643 -74.405479 65.757107 -78.997338 30.580831 6.900526 14.934068 0.016679 -0.392321 0.006770
-147.104809 49.064794 18.583166 177.194360 -33.548297 -3.655979 2.053595 19.965346 3.688843 0.208016 2.511557 0.391305 0.349303 4.123056 0.626490 1.801678 17.153238 2.848698 13.030151 24.833370 -1.171143 23.613798 11.393435 -5.034234 -3.586294 -3.903952 -3.272489 2.091852 -3.697838 -12.088046 -38.814060 -42.805442 90.059125 1.778834 0.699153 -12.640331 -3.094167 -4.450402 6.207482 20.192580 -7.439104 7.454705 81.353985 -37.306684 -103.267917 17.516435 -7.913333 27.320070 -1.607768 -51.385696 -9.408685 -137.911337 81.136833 -125.457053 -30.208247 -2.347302 -3.118008 -0.172504 -11.282655 1.143650 -15.173965 -53.054492 17.169856 -74.388604 65.770159 -78.977686 30.595960 6.925967 14.931210 0.000648 -0.405708 0.000376
